<svg xmlns="http://www.w3.org/2000/svg" xmlns:xlink="http://www.w3.org/1999/xlink" width="109.152" height="210.09600000000003"><path d="M24.48-1.15L24.48-1.15L24.48-1.15Q28.30-5.69 32.00-10.19L32.00-10.19L32.00-10.19Q35.71-14.69 39.53-19.15L39.53-19.15L39.53-19.15Q44.93-25.49 49.68-30.28L49.68-30.28L49.68-30.28Q54.43-35.06 58.54-38.38L58.54-38.38L58.54-38.38Q69.55-47.52 77.04-47.52L77.04-47.52L77.04-47.52Q77.69-47.52 78.34-47.45L78.34-47.45L78.34-47.45Q78.98-47.38 79.70-47.23L79.70-47.23L79.70-47.23Q80.57-47.02 80.57-47.38L80.57-47.38L80.57-47.38Q80.57-47.52 79.70-48.02L79.70-48.02L79.70-48.02Q77.98-48.53 76.03-48.53L76.03-48.53L76.03-48.53Q65.74-48.53 49.32-32.11L49.32-32.11L49.32-32.11Q44.35-27.07 37.94-19.55L37.94-19.55L37.94-19.55Q31.54-12.02 23.69-1.87L23.69-1.87L23.69-1.87Q22.82-0.72 22.18-0.72L22.18-0.72L22.18-0.72Q21.53-0.72 21.31-2.02L21.31-2.02L21.31-2.02Q21.17-3.02 21.31-4.03L21.31-4.03L21.31-4.03Q22.18-9.29 29.74-27.43L29.74-27.43L29.74-27.43Q33.19-35.93 35.03-41.44L35.03-41.44L35.03-41.44Q36.86-46.94 36.94-49.46L36.94-49.46L36.94-49.46Q37.01-52.49 34.70-54.58L34.70-54.58L34.70-54.58Q32.54-56.59 29.59-56.38L29.59-56.38L29.59-56.38Q21.17-55.30 12.46-46.66L12.46-46.66L12.46-46.66Q3.60-37.87 2.59-29.30L2.59-29.30L2.59-29.30Q2.45-27.94 3.46-26.14L3.46-26.14L3.46-26.14Q4.03-25.20 4.50-24.73L4.50-24.73L4.50-24.73Q4.97-24.26 5.40-24.12L5.40-24.12L5.40-24.12Q6.05-23.54 6.77-23.54L6.77-23.54L6.77-23.54Q7.85-23.76 7.85-24.41L7.85-24.41L7.85-24.41Q7.85-24.84 7.13-24.91L7.13-24.91L7.13-24.91Q6.55-25.06 6.12-25.09L6.12-25.09L6.12-25.09Q5.69-25.13 5.47-25.27L5.47-25.27L5.47-25.27Q3.89-26.21 4.10-29.09L4.10-29.09L4.10-29.09Q4.75-35.93 12.74-44.35L12.74-44.35L12.74-44.35Q21.38-53.42 30.38-54.72L30.38-54.72L30.38-54.72Q30.74-54.79 31.10-54.79L31.10-54.79L31.10-54.79Q31.46-54.79 31.75-54.79L31.75-54.79L31.75-54.79Q34.92-54.79 34.92-51.62L34.92-51.62L34.92-50.62L34.92-50.62Q34.85-50.26 34.85-50.11L34.85-50.11L34.85-50.11Q34.85-49.97 34.85-49.82L34.85-49.82L34.85-49.82Q34.63-44.93 27.07-27.58L27.07-27.58L27.07-27.58Q23.18-18.65 21.17-12.78L21.17-12.78L21.17-12.78Q19.15-6.91 18.94-3.89L18.94-3.89L18.94-3.89Q18.94-3.24 19.15-2.52L19.15-2.52L19.15-2.52Q19.37-1.80 19.76-1.19L19.76-1.19L19.76-1.19Q20.16-0.58 20.74-0.18L20.74-0.18L20.74-0.18Q21.31 0.22 22.03 0.22L22.03 0.22L22.03 0.22Q23.33 0.22 24.48-1.15ZM74.81-22.18L74.81-22.18L74.81-22.18Q75.17-22.68 74.92-22.82L74.92-22.82L74.92-22.82Q74.66-22.97 74.30-22.46L74.30-22.46L74.30-22.46Q73.44-21.67 71.89-20.88L71.89-20.88L71.89-20.88Q70.34-20.09 68.83-19.94L68.83-19.94L68.83-19.94Q67.68-19.80 66.06-19.73L66.06-19.73L66.06-19.73Q64.44-19.66 62.57-19.62L62.57-19.62L62.57-19.62Q60.70-19.58 58.61-19.58L58.61-19.58L58.61-19.58Q56.59-19.58 54.65-19.58L54.65-19.58L54.65-19.58Q58.25-20.16 61.06-21.53L61.06-21.53L61.06-21.53Q63.86-22.90 64.94-24.91L64.94-24.91L64.94-24.91Q65.59-25.99 65.48-27.29L65.48-27.29L65.48-27.29Q65.38-28.58 64.76-29.63L64.76-29.63L64.76-29.63Q64.15-30.67 63.07-31.21L63.07-31.21L63.07-31.21Q61.99-31.75 60.62-31.32L60.62-31.32L60.62-31.32Q58.10-30.31 54.97-27.83L54.97-27.83L54.97-27.83Q51.84-25.34 49.00-21.92L49.00-21.92L49.00-21.92Q46.15-18.50 44.17-14.54L44.17-14.54L44.17-14.54Q42.19-10.58 41.98-6.62L41.98-6.62L41.98-6.62Q41.90-5.18 42.62-3.92L42.62-3.92L42.62-3.92Q43.34-2.66 44.42-1.73L44.42-1.73L44.42-1.73Q45.50-0.79 46.80-0.32L46.80-0.32L46.80-0.32Q48.10 0.14 49.18-0.07L49.18-0.07L49.18-0.07Q50.47-0.29 51.88-0.83L51.88-0.83L51.88-0.83Q53.28-1.37 54.58-2.02L54.58-2.02L54.58-2.02Q55.87-2.66 56.95-3.35L56.95-3.35L56.95-3.35Q58.03-4.03 58.82-4.61L58.82-4.61L58.82-4.61Q59.40-4.97 59.11-5.22L59.11-5.22L59.11-5.22Q58.82-5.47 58.25-5.11L58.25-5.11L58.25-5.11Q56.30-4.03 53.60-3.02L53.60-3.02L53.60-3.02Q50.90-2.02 48.53-1.66L48.53-1.66L48.53-1.66Q47.59-1.58 46.69-1.76L46.69-1.76L46.69-1.76Q45.79-1.94 45.11-2.48L45.11-2.48L45.11-2.48Q44.42-3.02 44.03-4.03L44.03-4.03L44.03-4.03Q43.63-5.04 43.70-6.62L43.70-6.62L43.70-6.62Q43.78-8.35 44.35-9.97L44.35-9.97L44.35-9.97Q44.93-11.59 45.72-13.10L45.72-13.10L45.72-13.10Q46.51-14.62 47.41-15.95L47.41-15.95L47.41-15.95Q48.31-17.28 49.10-18.36L49.10-18.36L49.10-18.36Q51.26-18.36 54.14-18.36L54.14-18.36L54.14-18.36Q57.02-18.36 59.90-18.43L59.90-18.43L59.90-18.43Q62.78-18.50 65.20-18.58L65.20-18.58L65.20-18.58Q67.61-18.65 68.83-18.86L68.83-18.86L68.83-18.86Q70.85-19.15 72.47-20.27L72.47-20.27L72.47-20.27Q74.09-21.38 74.81-22.18ZM63.22-25.56L63.22-25.56L63.22-25.56Q62.35-24.26 60.88-23.18L60.88-23.18L60.88-23.18Q59.40-22.10 57.60-21.28L57.60-21.28L57.60-21.28Q55.80-20.45 53.78-20.02L53.78-20.02L53.78-20.02Q51.77-19.58 49.90-19.58L49.90-19.58L49.90-19.58Q52.34-22.25 55.08-24.73L55.08-24.73L55.08-24.73Q57.82-27.22 60.48-28.73L60.48-28.73L60.48-28.73Q61.56-29.30 62.39-29.34L62.39-29.34L62.39-29.34Q63.22-29.38 63.65-28.91L63.65-28.91L63.65-28.91Q64.08-28.44 64.01-27.58L64.01-27.58L64.01-27.58Q63.94-26.71 63.22-25.56ZM97.06-22.18L97.06-22.18L97.06-22.18Q97.42-22.68 97.16-22.82L97.16-22.82L97.16-22.82Q96.91-22.97 96.55-22.46L96.55-22.46L96.55-22.46Q95.69-21.67 94.14-20.88L94.14-20.88L94.14-20.88Q92.59-20.09 91.08-19.94L91.08-19.94L91.08-19.94Q89.93-19.80 88.31-19.73L88.31-19.73L88.31-19.73Q86.69-19.66 84.82-19.62L84.82-19.62L84.82-19.62Q82.94-19.58 80.86-19.58L80.86-19.58L80.86-19.58Q78.84-19.58 76.90-19.58L76.90-19.58L76.90-19.58Q80.50-20.16 83.30-21.53L83.30-21.53L83.30-21.53Q86.11-22.90 87.19-24.91L87.19-24.91L87.19-24.91Q87.84-25.99 87.73-27.29L87.73-27.29L87.73-27.29Q87.62-28.58 87.01-29.63L87.01-29.63L87.01-29.63Q86.40-30.67 85.32-31.21L85.32-31.21L85.32-31.21Q84.24-31.75 82.87-31.32L82.87-31.32L82.87-31.32Q80.35-30.31 77.22-27.83L77.22-27.83L77.22-27.83Q74.09-25.34 71.24-21.92L71.24-21.92L71.24-21.92Q68.40-18.50 66.42-14.54L66.42-14.54L66.42-14.54Q64.44-10.58 64.22-6.62L64.22-6.62L64.22-6.62Q64.15-5.18 64.87-3.92L64.87-3.92L64.87-3.92Q65.59-2.66 66.67-1.73L66.67-1.73L66.67-1.73Q67.75-0.79 69.05-0.32L69.05-0.32L69.05-0.32Q70.34 0.14 71.42-0.07L71.42-0.07L71.42-0.07Q72.72-0.29 74.12-0.83L74.12-0.83L74.12-0.83Q75.53-1.37 76.82-2.02L76.82-2.02L76.82-2.02Q78.12-2.66 79.20-3.35L79.20-3.35L79.20-3.35Q80.28-4.03 81.07-4.61L81.07-4.61L81.07-4.61Q81.65-4.97 81.36-5.22L81.36-5.22L81.36-5.22Q81.07-5.47 80.50-5.11L80.50-5.11L80.50-5.11Q78.55-4.03 75.85-3.02L75.85-3.02L75.85-3.02Q73.15-2.02 70.78-1.66L70.78-1.66L70.78-1.66Q69.84-1.58 68.94-1.76L68.94-1.76L68.94-1.76Q68.04-1.94 67.36-2.48L67.36-2.48L67.36-2.48Q66.67-3.02 66.28-4.03L66.28-4.03L66.28-4.03Q65.88-5.04 65.95-6.62L65.95-6.62L65.95-6.62Q66.02-8.35 66.60-9.97L66.60-9.97L66.60-9.97Q67.18-11.59 67.97-13.10L67.97-13.10L67.97-13.10Q68.76-14.62 69.66-15.95L69.66-15.95L69.66-15.95Q70.56-17.28 71.35-18.36L71.35-18.36L71.35-18.36Q73.51-18.36 76.39-18.36L76.39-18.36L76.39-18.36Q79.27-18.36 82.15-18.43L82.15-18.43L82.15-18.43Q85.03-18.50 87.44-18.58L87.44-18.58L87.44-18.58Q89.86-18.65 91.08-18.86L91.08-18.86L91.08-18.86Q93.10-19.15 94.72-20.27L94.72-20.27L94.72-20.27Q96.34-21.38 97.06-22.18ZM85.46-25.56L85.46-25.56L85.46-25.56Q84.60-24.26 83.12-23.18L83.12-23.18L83.12-23.18Q81.65-22.10 79.85-21.28L79.85-21.28L79.85-21.28Q78.05-20.45 76.03-20.02L76.03-20.02L76.03-20.02Q74.02-19.58 72.14-19.58L72.14-19.58L72.14-19.58Q74.59-22.25 77.33-24.73L77.33-24.73L77.33-24.73Q80.06-27.22 82.73-28.73L82.73-28.73L82.73-28.73Q83.81-29.30 84.64-29.34L84.64-29.34L84.64-29.34Q85.46-29.38 85.90-28.91L85.90-28.91L85.90-28.91Q86.33-28.44 86.26-27.58L86.26-27.58L86.26-27.58Q86.18-26.71 85.46-25.56ZM86.33-8.21L86.33-8.21L86.33-8.21Q86.40-4.82 87.77-3.13L87.77-3.13L87.77-3.13Q89.14-1.44 91.22-1.15L91.22-1.15L91.22-1.15Q93.31-0.86 95.90-1.94L95.90-1.94L95.90-1.94Q98.50-3.02 101.02-5.26L101.02-5.26L101.02-5.26Q101.81-5.98 102.71-6.91L102.71-6.91L102.71-6.91Q103.61-7.85 104.18-8.57L104.18-8.57L104.18-8.57Q104.76-9.36 104.51-9.47L104.51-9.47L104.51-9.47Q104.26-9.58 103.68-9.00L103.68-9.00L103.68-9.00Q102.89-8.14 102.13-7.38L102.13-7.38L102.13-7.38Q101.38-6.62 100.44-5.90L100.44-5.90L100.44-5.90Q98.71-4.61 96.73-3.78L96.73-3.78L96.73-3.78Q94.75-2.95 93.06-3.17L93.06-3.17L93.06-3.17Q91.37-3.38 90.25-4.90L90.25-4.90L90.25-4.90Q89.14-6.41 89.28-9.79L89.28-9.79L89.28-9.79Q89.35-12.74 90.18-16.45L90.18-16.45L90.18-16.45Q91.01-20.16 92.23-23.54L92.23-23.54L92.23-23.54Q103.18-25.63 113.72-28.58L113.72-28.58L113.72-28.58Q124.27-31.54 134.57-35.50L134.57-35.50L134.57-35.50Q164.52-46.80 171.36-59.83L171.36-59.83L171.36-59.83Q172.58-62.35 172.94-65.16L172.94-65.16L172.94-65.16Q173.66-73.80 165.60-80.57L165.60-80.57L165.60-80.57Q157.68-87.41 147.17-86.83L147.17-86.83L147.17-86.83Q116.64-84.89 90-24.48L90-24.48L90-24.26L90-24.26Q88.20-20.09 87.19-16.02L87.19-16.02L87.19-16.02Q86.18-11.95 86.33-8.21ZM169.85-61.78L169.85-61.78L169.85-61.78Q163.87-49.68 139.39-38.95L139.39-38.95L139.39-38.95Q129.10-34.42 117.43-30.89L117.43-30.89L117.43-30.89Q105.77-27.36 92.59-24.62L92.59-24.62L92.59-24.62Q92.81-24.98 92.95-25.34L92.95-25.34L92.95-25.34Q93.10-25.70 93.24-26.06L93.24-26.06L93.17-26.06L93.17-26.06Q97.13-35.28 101.74-43.60L101.74-43.60L101.74-43.60Q106.34-51.91 111.82-59.47L111.82-59.47L111.82-59.47Q129.74-84.74 147.17-85.54L147.17-85.54L147.17-85.54Q157.46-85.90 164.66-79.85L164.66-79.85L164.66-79.85Q171.86-74.02 171.07-66.38L171.07-66.38L171.07-66.38Q170.93-65.16 170.64-64.04L170.64-64.04L170.64-64.04Q170.35-62.93 169.85-61.78Z"/></svg>